# AST/ASF file generated using VICON BodyLanguage
# -----------------------------------------------
:version 1.10
:name VICON
:units
  mass 1.0
  length 0.45
  angle deg
:documentation
   .ast/.asf automatically generated from VICON data using
   VICON BodyBuilder and BodyLanguage model FoxedUp or BRILLIANT.MOD
:root
   order TX TY TZ RX RY RZ
   axis XYZ
   position 0 0 0  
   orientation 0 0 0 
:bonedata
  begin
     id 1 
     name lhipjoint
     direction 0.567725 -0.736092 0.368589 
     length 2.42353 
     axis 0 0 0  XYZ
  end
  begin
     id 2 
     name lfemur
     direction 0.34202 -0.939693 0  
     length 7.24894  
     axis 0 0 20  XYZ
    dof rx ry rz
    limits (-160.0 20.0)
           (-70.0 70.0)
           (-60.0 70.0)
  end
  begin
     id 3 
     name ltibia
     direction 0.34202 -0.939693 0   
     length 7.6997   
     axis 0 0 20   XYZ
    dof rx
    limits (-10.0 170.0)
  end
  begin
     id 4 
     name lfoot
     direction 0.100767 -0.276854 0.955614   
     length 2.37556   
     axis -90 7.62852e-016 20   XYZ
    dof rx rz
    limits (-45.0 90.0)
           (-70.0 20.0)
  end
  begin
     id 5 
     name ltoes
     direction 1.53592e-011 -4.21894e-011 1   
     length 1.18363   
     axis -90 7.62852e-016 20   XYZ
    dof rx
    limits (-90.0 20.0)
  end
  begin
     id 6 
     name rhipjoint
     direction -0.556459 -0.742938 0.372017   
     length 2.4012  
     axis 0 0 0  XYZ 
  end
  begin
     id 7 
     name rfemur
     direction -0.34202 -0.939693 0   
     length 7.5119   
     axis 0 0 -20   XYZ
    dof rx ry rz
    limits (-160.0 20.0)
           (-70.0 70.0)
           (-70.0 60.0)
  end
  begin
     id 8 
     name rtibia
     direction -0.34202 -0.939693 0   
     length 7.50155   
     axis 0 0 -20   XYZ
    dof rx
    limits (-10.0 170.0)
 end
 begin
     id 9 
     name rfoot
     direction -0.118427 -0.325376 0.938139   
     length 2.32487  
     axis -90 -7.62852e-016 -20   XYZ
    dof rx rz
    limits (-45.0 90.0)
           (-20.0 70.0)
  end
  begin
     id 10 
     name rtoes
     direction -1.53525e-011 -4.21868e-011 1   
     length 1.15233   
     axis -90 -7.62852e-016 -20   XYZ
    dof rx
    limits (-90.0 20.0)
  end
  begin
     id 11 
     name lowerback
     direction 0.0287568 0.999577 -0.00434502   
     length 2.15243   
     axis 0 0 0   XYZ
    dof rx ry rz
    limits (-20.0 45.0)
           (-30.0 30.0)
           (-30.0 30.0)
  end
  begin
     id 12 
     name upperback
     direction 0.0294009 0.99956 0.00404628   
     length 2.15427   
     axis 0 0 0   XYZ
    dof rx ry rz
    limits (-20.0 45.0)
           (-30.0 30.0)
           (-30.0 30.0)
  end
  begin
     id 13 
     name thorax
     direction 0.0151014 0.999868 0.0059419   
     length 2.14898   
     axis 0 0 0   XYZ
    dof rx ry rz
    limits (-20.0 45.0)
           (-30.0 30.0)
           (-30.0 30.0)
  end
  begin
     id 14 
     name lowerneck
     direction -0.0249197 0.989906 0.139515   
     length 1.6861   
     axis 0 0 0   XYZ
    dof rx ry rz
    limits (-20.0 45.0)
           (-30.0 30.0)
           (-30.0 30.0)
  end
  begin
     id 15 
     name upperneck
     direction 0.0438463 0.988795 -0.142693   
     length 1.71276   
     axis 0 0 0   XYZ
    dof rx ry rz
    limits (-20.0 45.0)
           (-30.0 30.0)
           (-30.0 30.0)
  end
  begin
     id 16
     name head
     direction 0.0148499 0.997845 -0.0639186  
     length 1.7209  
     axis 0 0 0   XYZ
    dof rx ry rz
    limits (-20.0 45.0)
           (-30.0 30.0)
           (-30.0 30.0)
  end
  begin
     id 17 
     name lclavicle
     direction 0.940298 0.323464 -0.105876  
     length 3.9048  
     axis 0 0 0   XYZ
    dof ry rz
    limits (-20.0 10.0)
           (0.0 20.0)
  end
  begin
     id 18 
     name lhumerus
     direction 1 -4.48954e-011 -4.9675e-028   
     length 4.6851   
     axis 180 -30 -90   XYZ
    dof rx ry rz
    limits (-60.0 90.0)
           (-90.0 90.0)
           (-90.0 90.0)
  end
  begin
     id 19
     name lradius
     direction 1 -4.48992e-011 -1.03359e-026   
     length 3.39626   
     axis 180 -30 -90   XYZ
    dof rx
    limits (-10.0 170.0)
  end
  begin
     id 20
     name lwrist
     direction 1 -4.48906e-011 -1.67336e-026   
     length 1.69813   
     axis 9.90442e-015 90 90   XYZ
    dof ry
    limits (-180.0 0.0)
 end
  begin
     id 21 
     name lhand
     direction 1 -4.49006e-011 -3.34673e-026   
     length 0.486078   
     axis 2.1355e-014 90 90   XYZ
    dof rx rz
    limits (-90.0 90.0)
           (-45.0 45.0)
  end
  begin
     id 22 
     name lfingers
     direction 1 -4.48992e-011 -6.69345e-026   
     length 0.391889   
     axis 4.27099e-014 90 90   XYZ
    dof rx
    limits (0.0 90.0)
  end
  begin
     id 23
     name lthumb
     direction 0.707107 -6.34926e-011 0.707107   
     length 0.562676   
     axis -90 45 2.85299e-015   XYZ
    dof rx rz
    limits (-45.0 45.0)
           (-45.0 45.0)
  end
  begin
     id 24 
     name rclavicle
     direction -0.882459 0.414895 -0.221648   
     length 3.44646  
     axis 0 0 0   XYZ 
    dof ry rz
    limits (-10.0 20.0)
           (-20.0 0.0)
  end
  begin
     id 25 
     name rhumerus
     direction -1 -4.48962e-011 -2.37984e-027  
     length 5.55576   
     axis 180 30 90   XYZ
    dof rx ry rz
    limits (-90.0 60.0)
           (-90.0 90.0)
           (-90.0 90.0)
  end
  begin
     id 26 
     name rradius
     direction -1 -4.48982e-011 -6.86791e-027   
     length 3.32774   
     axis 180 30 90   XYZ
    dof rx
    limits (-10.0 170.0)
  end
  begin
     id 27 
     name rwrist
     direction -1 -4.48961e-011 -1.67336e-026   
     length 1.66387   
     axis 9.90442e-015 -90 -90   XYZ
    dof ry
    limits (-180.0 0.0)
  end
  begin
     id 28
     name rhand
     direction -1 -4.4897e-011 -3.34673e-026   
     length 0.507628   
     axis 2.1355e-014 -90 -90   XYZ
    dof rx rz
    limits (-90.0 90.0)
           (-45.0 45.0)
  end
  begin
     id 29
     name rfingers
     direction -1 -4.48854e-011 -6.69345e-026   
     length 0.409263   
     axis 4.27099e-014 -90 -90   XYZ
    dof rx
    limits (0.0 90.0)
  end
  begin
     id 30
     name rthumb
     direction -0.707107 -6.34913e-011 0.707107   
     length 0.587622   
     axis -90 -45 -2.85299e-015   XYZ
    dof rx rz
    limits (-45.0 45.0)
           (-45.0 45.0)
  end
:hierarchy
  begin
    root lhipjoint rhipjoint lowerback
    lhipjoint lfemur
    lfemur ltibia
    ltibia lfoot
    lfoot ltoes
    rhipjoint rfemur
    rfemur rtibia
    rtibia rfoot
    rfoot rtoes
    lowerback upperback
    upperback thorax
    thorax lowerneck lclavicle rclavicle
    lowerneck upperneck
    upperneck head
    lclavicle lhumerus
    lhumerus lradius
    lradius lwrist
    lwrist lhand lthumb
    lhand lfingers
    rclavicle rhumerus
    rhumerus rradius
    rradius rwrist
    rwrist rhand rthumb
    rhand rfingers
  end

#!OML:ASF E:\motion texture\Top Level 1\Subject 1\Session 1\male.ASF
:FULLY-SPECIFIED
:DEGREES
48
root 26.8012 17.815 5.38618 -274.47 -83.9866 281.225
lowerback 0.888268 -2.82402 3.57556
upperback 0.166805 -3.9019 6.34414
thorax -0.114406 -2.03602 4.58123
lowerneck -11.651 -2.52914 -2.80343
upperneck 9.29017 -3.50166 4.6224
head 4.82537 -1.53028 1.62396
rclavicle 2.52457e-014 6.20208e-014
rhumerus -50.5913 -5.32291 -67.9431
rradius 103.569
rwrist -6.43288
rhand -14.57 -24.8028
rfingers 7.12502
rthumb 11.5795 -54.4629
lclavicle 2.52457e-014 6.20208e-014
lhumerus -35.7637 -28.2685 103.474
lradius 98.5496
lwrist 21.7654
lhand -12.457 36.1264
lfingers 7.12502
lthumb 13.6166 65.661
rfemur -21.7851 3.47916 26.8701
rtibia 23.0185
rfoot -4.70904 -8.73867
rtoes 15.2936
lfemur -12.3899 0.373673 -9.31751
ltibia 55.2808
lfoot 7.57893 -1.04791
ltoes -14.5073
49
root 26.6753 17.8283 5.3594 -273.923 -83.8609 280.575
lowerback 0.959292 -2.74111 3.60865
upperback 0.162045 -3.78407 6.32111
thorax -0.169231 -1.97663 4.54207
lowerneck -11.5502 -2.51731 -2.78517
upperneck 9.34044 -3.50349 4.69882
head 4.82544 -1.5272 1.64543
rclavicle 6.16232e-015 -7.95139e-016
rhumerus -50.0523 -5.51904 -67.634
rradius 105.023
rwrist -6.35642
rhand -14.8912 -24.9119
rfingers 7.12502
rthumb 11.2697 -54.5892
lclavicle 6.16232e-015 -7.95139e-016
lhumerus -34.9784 -27.5097 102.608
lradius 99.6653
lwrist 20.3754
lhand -12.8659 34.5281
lfingers 7.12502
lthumb 13.2225 64.0887
rfemur -20.9982 3.54729 27.1822
rtibia 22.6778
rfoot -5.02607 -8.72503
rtoes 15.3325
lfemur -13.4002 0.818561 -9.04143
ltibia 56.6125
lfoot 6.64284 -0.487988
ltoes -14.0363
50
root 26.5509 17.8421 5.33391 -273.282 -83.7728 279.848
lowerback 1.03482 -2.65334 3.61018
upperback 0.133538 -3.6569 6.28524
thorax -0.250296 -1.91213 4.50782
lowerneck -11.4302 -2.50801 -2.77408
upperneck 9.40587 -3.50647 4.75765
head 4.82682 -1.5262 1.66265
rclavicle -2.56432e-014 2.38542e-015
rhumerus -49.3619 -5.67282 -67.3791
rradius 106.374
rwrist -6.24985
rhand -15.2581 -25.0251
rfingers 7.12502
rthumb 10.9158 -54.7214
lclavicle -2.56432e-014 2.38542e-015
lhumerus -34.1551 -26.6887 101.753
lradius 100.676
lwrist 18.9623
lhand -13.3292 32.8486
lfingers 7.12502
lthumb 12.7759 62.4377
rfemur -20.2238 3.62706 27.4436
rtibia 22.3175
rfoot -5.33378 -8.70658
rtoes 15.4353
lfemur -14.4227 1.2578 -8.82526
ltibia 57.7942
lfoot 5.73108 -0.00118253
ltoes -13.5563
51
root 26.4282 17.8561 5.31006 -272.515 -83.7025 279.01
lowerback 1.10948 -2.55858 3.6034
upperback 0.0896045 -3.51896 6.24182
thorax -0.347176 -1.84203 4.47033
lowerneck -11.3029 -2.49989 -2.77348
upperneck 9.48216 -3.50834 4.80344
head 4.83019 -1.52588 1.67766
rclavicle -2.24627e-014 -1.03368e-014
rhumerus -48.5186 -5.78827 -67.1802
rradius 107.61
rwrist -6.11076
rhand -15.642 -25.1128
rfingers 7.12502
rthumb 10.5455 -54.8283
lclavicle -2.24627e-014 -1.03368e-014
lhumerus -33.3027 -25.8273 100.923
lradius 101.582
lwrist 17.5667
lhand -13.8541 31.2083
lfingers 7.12502
lthumb 12.2698 60.8283
rfemur -19.4666 3.70981 27.6773
rtibia 21.9468
rfoot -5.63379 -8.67182
rtoes 15.5939
lfemur -15.453 1.68333 -8.64796
ltibia 58.8283
lfoot 4.8404 0.388753
ltoes -13.2203
52
root 26.3069 17.87 5.28749 -271.711 -83.6284 278.143
lowerback 1.12938 -2.46202 3.61453
upperback 0.0736822 -3.38455 6.18847
thorax -0.385675 -1.77351 4.40816
lowerneck -11.1901 -2.49363 -2.76847
upperneck 9.5386 -3.50994 4.83198
head 4.82939 -1.52623 1.68653
rclavicle 3.18055e-014 -5.24792e-014
rhumerus -47.4673 -5.88989 -67.068
rradius 108.72
rwrist -5.93743
rhand -16.0187 -25.1755
rfingers 7.12502
rthumb 10.1821 -54.9091
lclavicle 3.18055e-014 -5.24792e-014
lhumerus -32.3618 -24.9337 100.07
lradius 102.374
lwrist 16.1471
lhand -14.3893 29.7507
lfingers 7.12502
lthumb 11.7537 59.4009
rfemur -18.7114 3.79779 27.9083
rtibia 21.5547
rfoot -5.92874 -8.63458
rtoes 15.8116
lfemur -16.4818 2.08133 -8.48203
ltibia 59.7168
lfoot 3.9585 0.697787
ltoes -13.0958
53
root 26.1869 17.8837 5.26607 -270.919 -83.542 277.286
lowerback 1.1122 -2.36421 3.64493
upperback 0.0823775 -3.25311 6.1333
thorax -0.378639 -1.70651 4.3305
lowerneck -11.1008 -2.49 -2.76916
upperneck 9.58135 -3.51115 4.847
head 4.82808 -1.52711 1.69197
rclavicle -3.37934e-015 1.03368e-014
rhumerus -46.2336 -5.95803 -67.0319
rradius 109.699
rwrist -5.73159
rhand -16.4468 -25.2225
rfingers 7.12502
rthumb 9.76907 -54.9759
lclavicle -3.37934e-015 1.03368e-014
lhumerus -31.3489 -24.0131 99.2228
lradius 103.052
lwrist 14.762
lhand -14.8902 28.5692
lfingers 7.12502
lthumb 11.2707 58.2464
rfemur -17.9503 3.88125 28.1475
rtibia 21.1414
rfoot -6.20214 -8.5873
rtoes 15.989
lfemur -17.4989 2.44586 -8.31797
ltibia 60.4637
lfoot 3.0613 0.927153
ltoes -13.1865
54
root 26.0684 17.8968 5.24592 -270.148 -83.4329 276.448
lowerback 1.0833 -2.26697 3.71278
upperback 0.105307 -3.12421 6.07603
thorax -0.351886 -1.64088 4.22875
lowerneck -11.0354 -2.48771 -2.77317
upperneck 9.6211 -3.51071 4.84556
head 4.82949 -1.52792 1.69275
rclavicle 1.0635e-014 -5.00937e-014
rhumerus -44.8536 -5.9749 -67.0715
rradius 110.551
rwrist -5.48774
rhand -16.92 -25.2443
rfingers 7.12502
rthumb 9.31254 -55.0187
lclavicle 1.0635e-014 -5.00937e-014
lhumerus -30.2913 -23.0773 98.4001
lradius 103.612
lwrist 13.4016
lhand -15.3765 27.6465
lfingers 7.12502
lthumb 10.8017 57.3488
rfemur -17.1839 3.96053 28.4073
rtibia 20.7113
rfoot -6.45641 -8.53492
rtoes 16.1218
lfemur -18.5012 2.77456 -8.14369
ltibia 61.0755
lfoot 2.13361 1.07346
ltoes -13.3387
55
root 25.9512 17.9089 5.22684 -269.404 -83.31 275.633
lowerback 1.05794 -2.17135 3.80827
upperback 0.126417 -2.99682 6.01411
thorax -0.330001 -1.576 4.10708
lowerneck -10.973 -2.48625 -2.78179
upperneck 9.65915 -3.50863 4.82992
head 4.8306 -1.52888 1.68997
rclavicle -2.77305e-014 2.38542e-014
rhumerus -43.3679 -5.9312 -67.1782
rradius 111.269
rwrist -5.19086
rhand -17.4383 -25.2319
rfingers 7.12502
rthumb 8.81238 -55.0279
lclavicle -2.77305e-014 2.38542e-014
lhumerus -29.2223 -22.1321 97.6204
lradius 104.05
lwrist 12.0736
lhand -15.8621 26.9909
lfingers 7.12502
lthumb 10.3332 56.717
rfemur -16.4181 4.02041 28.6777
rtibia 20.2728
rfoot -6.68208 -8.46067
rtoes 16.1306
lfemur -19.4885 3.06652 -7.97023
ltibia 61.5545
lfoot 1.15776 1.1596
ltoes -13.5153
56
root 25.8354 17.9198 5.20883 -268.716 -83.1757 274.872
lowerback 1.05145 -2.07814 3.93156
upperback 0.139423 -2.87028 5.94706
thorax -0.327923 -1.5116 3.96576
lowerneck -10.9277 -2.48692 -2.79507
upperneck 9.70678 -3.50678 4.79942
head 4.8373 -1.53067 1.68314
rclavicle -3.57812e-015 4.29375e-014
rhumerus -41.8027 -5.82114 -67.343
rradius 111.851
rwrist -4.83507
rhand -17.9852 -25.172
rfingers 7.12502
rthumb 8.28459 -54.9895
lclavicle -3.57812e-015 4.29375e-014
lhumerus -28.1449 -21.1899 96.8892
lradius 104.359
lwrist 10.7832
lhand -16.4187 26.42
lfingers 7.12502
lthumb 9.79622 56.1721
rfemur -15.6556 4.06432 28.9552
rtibia 19.8271
rfoot -6.88202 -8.37318
rtoes 16.0381
lfemur -20.4609 3.32144 -7.7984
ltibia 61.9004
lfoot 0.164256 1.20862
ltoes -13.6111
57
root 25.7211 17.9294 5.19185 -268.071 -83.0379 274.156
lowerback 1.06137 -1.98735 4.06638
upperback 0.139925 -2.74465 5.87894
thorax -0.347652 -1.4478 3.81804
lowerneck -10.886 -2.48925 -2.8177
upperneck 9.75615 -3.50351 4.75274
head 4.84494 -1.53299 1.67288
rclavicle 9.34288e-015 -5.64548e-014
rhumerus -40.1771 -5.63572 -67.5493
rradius 112.29
rwrist -4.41722
rhand -18.5229 -25.0469
rfingers 7.12502
rthumb 7.76569 -54.8843
lclavicle 9.34288e-015 -5.64548e-014
lhumerus -27.0839 -20.2579 96.2168
lradius 104.54
lwrist 9.53175
lhand -17.0371 25.9671
lfingers 7.12502
lthumb 9.19955 55.7464
rfemur -14.9043 4.09157 29.2289
rtibia 19.3856
rfoot -7.06916 -8.26757
rtoes 15.9009
lfemur -21.4211 3.5386 -7.63634
ltibia 62.1123
lfoot -0.828102 1.25083
ltoes -13.6333
58
root 25.6083 17.9373 5.17583 -267.457 -82.8986 273.479
lowerback 1.08529 -1.89941 4.20484
upperback 0.125428 -2.62071 5.81466
thorax -0.389729 -1.38517 3.67331
lowerneck -10.8464 -2.49556 -2.85252
upperneck 9.80715 -3.50078 4.68411
head 4.85324 -1.5373 1.65772
rclavicle 2.8625e-014 -8.26944e-014
rhumerus -38.5147 -5.35418 -67.7829
rradius 112.586
rwrist -3.95973
rhand -19.0446 -24.8659
rfingers 7.12502
rthumb 7.2621 -54.7212
lclavicle 2.8625e-014 -8.26944e-014
lhumerus -26.0434 -19.3371 95.6077
lradius 104.589
lwrist 8.32526
lhand -17.747 25.6041
lfingers 7.12502
lthumb 8.51451 55.4125
rfemur -14.1735 4.10502 29.4956
rtibia 18.9513
rfoot -7.25174 -8.14847
rtoes 15.7663
lfemur -22.3755 3.72267 -7.48415
ltibia 62.1931
lfoot -1.79552 1.32061
ltoes -13.6882
59
root 25.4969 17.9437 5.16088 -266.816 -82.7574 272.787
lowerback 1.1227 -1.80963 4.34718
upperback 0.0951001 -2.49214 5.75459
thorax -0.45494 -1.32065 3.53161
lowerneck -10.8091 -2.50865 -2.90567
upperneck 9.85657 -3.50272 4.60528
head 4.86174 -1.54516 1.64201
rclavicle 2.10712e-014 1.03368e-014
rhumerus -36.8345 -4.97507 -68.0322
rradius 112.738
rwrist -3.4783
rhand -19.5523 -24.6362
rfingers 7.12502
rthumb 6.77206 -54.5079
lclavicle 2.10712e-014 1.03368e-014
lhumerus -25.026 -18.4367 95.0583
lradius 104.496
lwrist 7.1648
lhand -18.4898 25.3398
lfingers 7.12502
lthumb 7.79763 55.176
rfemur -13.4723 4.10973 29.7567
rtibia 18.5339
rfoot -7.42743 -8.01516
rtoes 15.6038
lfemur -23.3218 3.88358 -7.33927
ltibia 62.1395
lfoot -2.70196 1.43065
ltoes -13.7354
60
root 25.3868 17.9484 5.14679 -266.129 -82.6204 272.062
lowerback 1.17071 -1.71704 4.48499
upperback 0.0510393 -2.35797 5.69772
thorax -0.539193 -1.25373 3.39626
lowerneck -10.7857 -2.52966 -2.97433
upperneck 9.91031 -3.51085 4.51265
head 4.87413 -1.55725 1.6239
rclavicle -6.55989e-015 7.79236e-014
rhumerus -35.138 -4.50383 -68.2933
rradius 112.736
rwrist -2.98548
rhand -20.0118 -24.3651
rfingers 7.12502
rthumb 6.32842 -54.2505
lclavicle -6.55989e-015 7.79236e-014
lhumerus -24.0434 -17.5648 94.565
lradius 104.262
lwrist 6.0507
lhand -19.3279 25.0959
lfingers 7.12502
lthumb 6.98866 54.9606
rfemur -12.8006 4.1236 30.0073
rtibia 18.1339
rfoot -7.61965 -7.89233
rtoes 15.5219
lfemur -24.2537 4.02722 -7.20511
ltibia 61.9482
lfoot -3.53183 1.58901
ltoes -13.7654
